<svg width="16" height="18" viewBox="0 0 16 18" fill="none" xmlns="http://www.w3.org/2000/svg">
<path d="M6.33287 15.8326C6.88346 16.0707 7.4043 16.1897 7.89537 16.1897C10.693 16.1897 12.0918 14.9435 12.0918 12.4509C12.0918 11.6027 11.9393 10.933 11.6342 10.442C11.4333 10.1146 11.2027 9.83929 10.9422 9.61607C10.6893 9.39286 10.44 9.22173 10.1945 9.10268C9.94894 8.97619 9.6476 8.88318 9.29046 8.82366C8.94076 8.7567 8.62826 8.71577 8.35296 8.70089C8.0851 8.68601 7.7354 8.67857 7.30385 8.67857C6.7607 8.67857 6.38495 8.71577 6.17662 8.79018C6.17662 9.18452 6.1729 9.77604 6.16546 10.5647C6.16546 11.3534 6.16546 11.9412 6.16546 12.3281C6.16546 12.3876 6.16174 12.6406 6.1543 13.0871C6.14686 13.526 6.14314 13.8832 6.14314 14.1585C6.15058 14.4338 6.16918 14.7463 6.19894 15.096C6.2287 15.4382 6.27334 15.6838 6.33287 15.8326ZM6.17662 7.5067C6.48912 7.55878 6.89462 7.58482 7.39314 7.58482C8.00326 7.58482 8.53525 7.53646 8.98912 7.43973C9.44299 7.34301 9.85221 7.17932 10.2168 6.94866C10.5814 6.71057 10.8567 6.37574 11.0427 5.9442C11.2361 5.51265 11.3329 4.98438 11.3329 4.35938C11.3329 3.83854 11.225 3.38467 11.0092 2.99777C10.7934 2.60342 10.4995 2.29836 10.1275 2.08259C9.75549 1.85937 9.3537 1.69568 8.92215 1.59152C8.49061 1.48735 8.0293 1.43527 7.53823 1.43527C7.1662 1.43527 6.68257 1.48363 6.08733 1.58036C6.08733 1.95238 6.10221 2.51414 6.13198 3.26562C6.16174 4.01711 6.17662 4.58259 6.17662 4.96205C6.17662 5.16295 6.1729 5.46057 6.16546 5.85491C6.16546 6.24926 6.16546 6.54315 6.16546 6.73661C6.16546 7.07887 6.16918 7.33557 6.17662 7.5067ZM0.138672 17.4286L0.160993 16.3795C0.2726 16.3497 0.588821 16.2902 1.10965 16.2009C1.63049 16.1116 2.02483 16.0112 2.29269 15.8996C2.34477 15.8103 2.38942 15.7098 2.42662 15.5982C2.47126 15.4866 2.50474 15.3638 2.52706 15.2299C2.54939 15.0885 2.56799 14.9658 2.58287 14.8616C2.60519 14.7574 2.61635 14.6198 2.61635 14.4487C2.62379 14.2701 2.62751 14.1436 2.62751 14.0692C2.62751 13.9874 2.62751 13.8534 2.62751 13.6674C2.62751 13.4814 2.62751 13.3698 2.62751 13.3326C2.62751 6.02604 2.54567 2.2128 2.38198 1.89286C2.35221 1.83333 2.27037 1.78125 2.13644 1.73661C2.00251 1.68452 1.8351 1.6436 1.63421 1.61384C1.44076 1.57664 1.25846 1.55059 1.08733 1.53571C0.916202 1.51339 0.73391 1.49479 0.540458 1.47991C0.354446 1.46503 0.242839 1.45387 0.205636 1.44643L0.160993 0.520088C0.89016 0.505208 2.15504 0.464285 3.95564 0.397321C5.75623 0.322916 7.14388 0.285713 8.11858 0.285713C8.28971 0.285713 8.54269 0.289434 8.87751 0.296874C9.21233 0.296874 9.46531 0.296874 9.63644 0.296874C10.1573 0.296874 10.6632 0.345237 11.1543 0.441963C11.6528 0.53869 12.1327 0.69494 12.594 0.910713C13.0553 1.12649 13.4571 1.39062 13.7994 1.70312C14.1416 2.01562 14.4169 2.40625 14.6253 2.875C14.8336 3.33631 14.9378 3.84598 14.9378 4.40402C14.9378 4.79092 14.8745 5.14807 14.748 5.47545C14.629 5.79539 14.4839 6.06324 14.3128 6.27902C14.1491 6.48735 13.911 6.6994 13.5985 6.91518C13.286 7.13095 13.0144 7.29836 12.7838 7.41741C12.5531 7.53646 12.2406 7.68527 11.8463 7.86384C12.9921 8.12426 13.9445 8.62277 14.7034 9.35938C15.4698 10.096 15.853 11.0186 15.853 12.1272C15.853 12.8713 15.7228 13.5409 15.4623 14.1362C15.2019 14.724 14.8522 15.2076 14.4132 15.5871C13.9817 15.9665 13.4683 16.2827 12.873 16.5357C12.2852 16.7961 11.6789 16.9784 11.0539 17.0826C10.4289 17.1868 9.77409 17.2388 9.08957 17.2388C8.76218 17.2388 8.27111 17.2277 7.61635 17.2054C6.96159 17.183 6.47052 17.1719 6.14314 17.1719C5.35445 17.1719 4.21233 17.2128 2.7168 17.2946C1.22126 17.3765 0.361886 17.4211 0.138672 17.4286Z" fill="currentColor"/>
</svg>
