<svg width="23" height="24" viewBox="0 0 23 24" fill="none" xmlns="http://www.w3.org/2000/svg">
<path d="M1.71429 22.2857H5.57143V18.4286H1.71429V22.2857ZM6.42857 22.2857H10.7143V18.4286H6.42857V22.2857ZM1.71429 17.5714H5.57143V13.2857H1.71429V17.5714ZM6.42857 17.5714H10.7143V13.2857H6.42857V17.5714ZM1.71429 12.4286H5.57143V8.57143H1.71429V12.4286ZM11.5714 22.2857H15.8571V18.4286H11.5714V22.2857ZM6.42857 12.4286H10.7143V8.57143H6.42857V12.4286ZM16.7143 22.2857H20.5714V18.4286H16.7143V22.2857ZM11.5714 17.5714H15.8571V13.2857H11.5714V17.5714ZM6.85714 6V2.14286C6.85714 2.02679 6.8125 1.92857 6.72321 1.84821C6.64286 1.75893 6.54464 1.71429 6.42857 1.71429H5.57143C5.45536 1.71429 5.35268 1.75893 5.26339 1.84821C5.18303 1.92857 5.14286 2.02679 5.14286 2.14286V6C5.14286 6.11607 5.18303 6.21875 5.26339 6.30804C5.35268 6.38839 5.45536 6.42857 5.57143 6.42857H6.42857C6.54464 6.42857 6.64286 6.38839 6.72321 6.30804C6.8125 6.21875 6.85714 6.11607 6.85714 6ZM16.7143 17.5714H20.5714V13.2857H16.7143V17.5714ZM11.5714 12.4286H15.8571V8.57143H11.5714V12.4286ZM16.7143 12.4286H20.5714V8.57143H16.7143V12.4286ZM17.1429 6V2.14286C17.1429 2.02679 17.0982 1.92857 17.0089 1.84821C16.9286 1.75893 16.8304 1.71429 16.7143 1.71429H15.8571C15.7411 1.71429 15.6384 1.75893 15.5491 1.84821C15.4687 1.92857 15.4286 2.02679 15.4286 2.14286V6C15.4286 6.11607 15.4687 6.21875 15.5491 6.30804C15.6384 6.38839 15.7411 6.42857 15.8571 6.42857H16.7143C16.8304 6.42857 16.9286 6.38839 17.0089 6.30804C17.0982 6.21875 17.1429 6.11607 17.1429 6ZM22.2857 5.14286V22.2857C22.2857 22.75 22.1161 23.1518 21.7768 23.4911C21.4375 23.8304 21.0357 24 20.5714 24H1.71429C1.25 24 0.848214 23.8304 0.508929 23.4911C0.169643 23.1518 0 22.75 0 22.2857V5.14286C0 4.67857 0.169643 4.27679 0.508929 3.9375C0.848214 3.59822 1.25 3.42857 1.71429 3.42857H3.42857V2.14286C3.42857 1.55357 3.63839 1.04911 4.05804 0.629465C4.47768 0.209822 4.98214 0 5.57143 0H6.42857C7.01786 0 7.52232 0.209822 7.94196 0.629465C8.36161 1.04911 8.57143 1.55357 8.57143 2.14286V3.42857H13.7143V2.14286C13.7143 1.55357 13.9241 1.04911 14.3437 0.629465C14.7634 0.209822 15.2679 0 15.8571 0H16.7143C17.3036 0 17.808 0.209822 18.2277 0.629465C18.6473 1.04911 18.8571 1.55357 18.8571 2.14286V3.42857H20.5714C21.0357 3.42857 21.4375 3.59822 21.7768 3.9375C22.1161 4.27679 22.2857 4.67857 22.2857 5.14286Z" fill="currentColor"/>
</svg>
