<svg width="20" height="16" viewBox="0 0 20 16" fill="none" xmlns="http://www.w3.org/2000/svg">
<path d="M20 13.8571V15.2857C20 15.4792 19.9293 15.6466 19.7879 15.7879C19.6466 15.9293 19.4792 16 19.2857 16H0.714286C0.520833 16 0.353423 15.9293 0.212054 15.7879C0.0706845 15.6466 0 15.4792 0 15.2857V13.8571C0 13.6637 0.0706845 13.4963 0.212054 13.3549C0.353423 13.2135 0.520833 13.1429 0.714286 13.1429H19.2857C19.4792 13.1429 19.6466 13.2135 19.7879 13.3549C19.9293 13.4963 20 13.6637 20 13.8571ZM15.7143 9.57143V11C15.7143 11.1935 15.6436 11.3609 15.5022 11.5022C15.3609 11.6436 15.1935 11.7143 15 11.7143H5C4.80655 11.7143 4.63914 11.6436 4.49777 11.5022C4.3564 11.3609 4.28571 11.1935 4.28571 11V9.57143C4.28571 9.37798 4.3564 9.21057 4.49777 9.0692C4.63914 8.92783 4.80655 8.85714 5 8.85714H15C15.1935 8.85714 15.3609 8.92783 15.5022 9.0692C15.6436 9.21057 15.7143 9.37798 15.7143 9.57143ZM18.5714 5.28571V6.71429C18.5714 6.90774 18.5007 7.07515 18.3594 7.21652C18.218 7.35789 18.0506 7.42857 17.8571 7.42857H2.14286C1.9494 7.42857 1.78199 7.35789 1.64062 7.21652C1.49926 7.07515 1.42857 6.90774 1.42857 6.71429V5.28571C1.42857 5.09226 1.49926 4.92485 1.64062 4.78348C1.78199 4.64211 1.9494 4.57143 2.14286 4.57143H17.8571C18.0506 4.57143 18.218 4.64211 18.3594 4.78348C18.5007 4.92485 18.5714 5.09226 18.5714 5.28571ZM14.2857 0.999999V2.42857C14.2857 2.62202 14.215 2.78943 14.0737 2.9308C13.9323 3.07217 13.7649 3.14286 13.5714 3.14286H6.42857C6.23512 3.14286 6.06771 3.07217 5.92634 2.9308C5.78497 2.78943 5.71429 2.62202 5.71429 2.42857V0.999999C5.71429 0.806547 5.78497 0.639136 5.92634 0.497768C6.06771 0.356398 6.23512 0.285713 6.42857 0.285713H13.5714C13.7649 0.285713 13.9323 0.356398 14.0737 0.497768C14.215 0.639136 14.2857 0.806547 14.2857 0.999999Z" fill="currentColor"/>
</svg>
