<svg width="16" height="18" viewBox="0 0 16 18" fill="none" xmlns="http://www.w3.org/2000/svg">
<path d="M15.8083 14.3147C15.8083 15.1853 15.5144 15.9144 14.9266 16.5022C14.3388 17.09 13.6097 17.3839 12.7391 17.3839C11.7347 17.3839 10.8604 17.0119 10.1164 16.2679L1.44448 7.60714C0.603702 6.75149 0.183315 5.7433 0.183315 4.58259C0.183315 3.39955 0.592541 2.39509 1.41099 1.5692C2.22945 0.743303 3.23019 0.330356 4.41323 0.330356C5.58882 0.330356 6.60445 0.750743 7.4601 1.59152L14.2123 8.35491C14.2867 8.42932 14.3239 8.51116 14.3239 8.60045C14.3239 8.71949 14.2086 8.89434 13.978 9.125C13.7547 9.34821 13.5836 9.45982 13.4646 9.45982C13.3678 9.45982 13.2823 9.42262 13.2079 9.34821L6.44448 2.57366C5.85668 2.00074 5.18331 1.71429 4.42439 1.71429C3.6357 1.71429 2.96977 1.9933 2.42662 2.55134C1.88346 3.10937 1.61189 3.78274 1.61189 4.57143C1.61189 5.35268 1.89462 6.02604 2.4601 6.59152L11.1208 15.2634C11.5896 15.7321 12.129 15.9665 12.7391 15.9665C13.2153 15.9665 13.6097 15.8103 13.9222 15.4978C14.2347 15.1853 14.3909 14.7909 14.3909 14.3147C14.3909 13.7046 14.1565 13.1652 13.6878 12.6964L7.2034 6.21205C7.00995 6.03348 6.78674 5.9442 6.53376 5.9442C6.31799 5.9442 6.13942 6.01488 5.99805 6.15625C5.85668 6.29762 5.78599 6.47619 5.78599 6.69196C5.78599 6.93006 5.879 7.14955 6.06501 7.35045L10.6409 11.9263C10.7153 12.0007 10.7525 12.0826 10.7525 12.1719C10.7525 12.2909 10.6372 12.4658 10.4065 12.6964C10.1759 12.9271 10.001 13.0424 9.88198 13.0424C9.79269 13.0424 9.71085 13.0052 9.63644 12.9308L5.06055 8.35491C4.5918 7.90104 4.35742 7.34673 4.35742 6.69196C4.35742 6.08184 4.56948 5.56473 4.99358 5.14062C5.41769 4.71652 5.9348 4.50446 6.54492 4.50446C7.19968 4.50446 7.754 4.73884 8.20787 5.20759L14.6922 11.692C15.4363 12.4211 15.8083 13.2954 15.8083 14.3147Z" fill="currentColor"/>
</svg>
