<svg width="20" height="21" viewBox="0 0 20 21" fill="none" xmlns="http://www.w3.org/2000/svg">
<path d="M18.9286 5.14286H14.2857C13.8504 5.14286 13.2924 5.33259 12.8571 5.58929V1.92857C12.8571 1.33705 12.3772 0.857141 11.7857 0.857141H7.14286C6.55134 0.857141 5.72545 1.20312 5.3125 1.61607L0.758929 6.16964C0.345982 6.58259 0 7.40848 0 8V15.5C0 16.0915 0.479911 16.5714 1.07143 16.5714H7.14286V19.7857C7.14286 20.3772 7.62277 20.8571 8.21429 20.8571H18.9286C19.5201 20.8571 20 20.3772 20 19.7857V6.21429C20 5.62277 19.5201 5.14286 18.9286 5.14286ZM12.8571 7.52009V10.8571H9.52009L12.8571 7.52009ZM5.71429 3.23437V6.57143H2.37723L5.71429 3.23437ZM7.90179 10.4554C7.48884 10.8683 7.14286 11.6942 7.14286 12.2857V15.1429H1.42857V8H6.07143C6.66295 8 7.14286 7.52009 7.14286 6.92857V2.28571H11.4286V6.92857L7.90179 10.4554ZM18.5714 19.4286H8.57143V12.2857H13.2143C13.8058 12.2857 14.2857 11.8058 14.2857 11.2143V6.57143H18.5714V19.4286Z" fill="currentColor"/>
</svg>
