<svg width="24" height="24" viewBox="0 0 24 24" xmlns="http://www.w3.org/2000/svg">
<path d="M21.8901 3H2.10866C0.947977 3 0 3.94666 0 5.10997V19.172C0 20.3301 0.942725 21.2807 2.10866 21.2807H21.8901C23.0495 21.2807 24.0001 20.338 24.0001 19.172V5.10997C24.0001 3.9506 23.056 3 21.8901 3ZM21.5986 4.40621L12.044 13.9608L2.4067 4.40621H21.5986ZM1.40621 18.8806V5.39357L8.17859 12.1082L1.40621 18.8806ZM2.40014 19.8745L9.17646 13.0982L11.5516 15.4524C11.8261 15.7255 12.2698 15.7241 12.543 15.4497L14.8591 13.1349L21.5986 19.8745H2.40014ZM22.5939 18.8806L15.853 12.141L22.5939 5.40014V18.8806Z" fill="currentColor"/>
</svg>
