<svg width="12" height="18" viewBox="0 0 12 18" fill="none" xmlns="http://www.w3.org/2000/svg">
<path d="M0.287109 17.4062L0.476842 16.4576C0.640532 16.4055 0.867467 16.3423 1.15765 16.2679C1.45526 16.2009 1.72312 16.1302 1.96122 16.0558C2.20675 15.9888 2.42997 15.9033 2.63086 15.7991C2.83919 15.5387 2.99172 15.1629 3.08845 14.6719C3.09589 14.6198 3.32654 13.5446 3.78041 11.4464C4.23428 9.34821 4.65839 7.32812 5.05273 5.38616C5.44708 3.43676 5.64053 2.33184 5.63309 2.07143V1.79241C5.45452 1.69568 5.24991 1.62872 5.01925 1.59152C4.79604 1.54687 4.53934 1.51711 4.24916 1.50223C3.95898 1.47991 3.74321 1.45759 3.60184 1.43527L3.8139 0.285713C4.05943 0.300595 4.50586 0.326636 5.15318 0.363838C5.8005 0.3936 6.35482 0.419642 6.81613 0.441963C7.28488 0.456845 7.73503 0.464285 8.16657 0.464285C8.52372 0.464285 8.8883 0.456845 9.26032 0.441963C9.63979 0.419642 10.0899 0.3936 10.6108 0.363838C11.139 0.326636 11.5073 0.300595 11.7157 0.285713C11.6785 0.575892 11.6078 0.906993 11.5036 1.27902C11.2804 1.35342 10.9009 1.46131 10.3652 1.60268C9.83696 1.73661 9.43518 1.85937 9.15988 1.97098C9.10035 2.11235 9.04827 2.27232 9.00363 2.45089C8.95898 2.62202 8.9255 2.77083 8.90318 2.89732C8.88086 3.01637 8.8511 3.18378 8.8139 3.39955C8.78413 3.61533 8.76181 3.77158 8.74693 3.8683C8.54604 4.96949 8.21866 6.53199 7.76479 8.5558C7.31836 10.5722 7.0319 11.8929 6.90541 12.5179C6.89053 12.5848 6.84217 12.8006 6.76032 13.1652C6.67848 13.5298 6.60407 13.8646 6.53711 14.1696C6.47015 14.4747 6.41062 14.7872 6.35854 15.1071C6.30645 15.4196 6.28413 15.6317 6.29157 15.7433L6.30273 15.9442C6.42922 15.974 7.11747 16.0893 8.36747 16.2902C8.34515 16.6176 8.28562 16.9859 8.1889 17.3951C8.10705 17.3951 7.98428 17.3988 7.82059 17.4062C7.66434 17.4211 7.54529 17.4286 7.46345 17.4286C7.24768 17.4286 6.92401 17.3914 6.49247 17.317C6.06092 17.2426 5.74098 17.2054 5.53265 17.2054C4.50586 17.1905 3.73949 17.183 3.23354 17.183C2.85407 17.183 2.32208 17.2165 1.63756 17.2835C0.953032 17.3504 0.502883 17.3914 0.287109 17.4062Z" fill="currentColor"/>
</svg>
