<svg width="14" height="20" viewBox="0 0 14 20" fill="none" xmlns="http://www.w3.org/2000/svg">
<path d="M13.4314 8.71429C13.4314 8.32366 13.1077 8 12.7171 8C12.3265 8 12.0028 8.32366 12.0028 8.71429V10.1429C12.0028 12.8996 9.75949 15.1429 7.00279 15.1429C4.24609 15.1429 2.00279 12.8996 2.00279 10.1429V8.71429C2.00279 8.32366 1.67913 8 1.2885 8C0.897879 8 0.574219 8.32366 0.574219 8.71429V10.1429C0.574219 13.4464 3.07422 16.1696 6.2885 16.5268V18H3.43136C3.04074 18 2.71708 18.3237 2.71708 18.7143C2.71708 19.1049 3.04074 19.4286 3.43136 19.4286H10.5742C10.9648 19.4286 11.2885 19.1049 11.2885 18.7143C11.2885 18.3237 10.9648 18 10.5742 18H7.71708V16.5268C10.9314 16.1696 13.4314 13.4464 13.4314 10.1429V8.71429ZM10.5742 4.42857C10.5742 2.46429 8.96708 0.857141 7.00279 0.857141C5.0385 0.857141 3.43136 2.46429 3.43136 4.42857V10.1429C3.43136 12.1071 5.0385 13.7143 7.00279 13.7143C8.96708 13.7143 10.5742 12.1071 10.5742 10.1429V4.42857Z" fill="currentColor"/>
</svg>
