<svg width="260" height="116" viewBox="0 0 260 116" fill="none" xmlns="http://www.w3.org/2000/svg">
<path d="M195.328 0.00926478C191.843 -0.011213 189.045 2.83094 189.025 6.31523L189.031 48.6844C189.099 50.2068 190.359 51.4813 191.912 51.4518C193.287 51.4367 193.746 50.8213 193.746 50.8213L205.534 36.7752L229.237 36.7678C232.721 36.7882 235.519 33.9461 235.54 30.4618L235.551 6.30281C235.532 2.8492 232.729 0.0204778 229.245 0L195.328 0.00926478Z" fill="url(#paint0_linear)"/>
<path d="M11.2935 115.684H0V85.1943C0 82.1589 0.282409 79.5467 0.91709 77.3591C1.55237 75.1714 2.40021 73.265 3.52926 71.7831C5.29299 69.4533 7.62155 67.618 10.3752 66.4185C13.1277 65.2202 16.2336 64.5837 19.6214 64.5837C22.3738 64.5837 24.986 65.007 27.3856 65.9259C29.7142 66.843 31.7615 68.1834 33.5258 69.8074C35.2908 71.4308 36.6318 73.4763 37.6199 75.8061C38.6081 78.1352 39.1012 80.748 39.1012 83.5709C39.1012 86.4637 38.6779 89.0042 37.7608 91.3345C36.8431 93.6631 35.5732 95.6394 34.0202 97.2628C32.3962 98.885 30.562 100.157 28.4442 101.074C26.3264 101.992 24.0671 102.415 21.6687 102.415C19.0565 102.415 16.8683 101.992 15.175 101.144C13.4107 100.368 12.1395 99.5221 11.2935 98.6737V115.684ZM228.602 115.426H224.086V85.5687C224.086 84.4391 224.122 83.4402 224.19 82.5691C224.258 81.6991 224.337 80.9355 224.429 80.2757C224.84 77.9693 225.546 75.8981 226.55 74.0639C227.553 72.2285 228.807 70.6761 230.312 69.405C231.817 68.1344 233.55 67.1582 235.511 66.477C237.472 65.7945 239.592 65.4524 241.872 65.4524C244.516 65.4524 246.956 65.9366 249.191 66.8997C251.425 67.8645 253.34 69.1823 254.937 70.8522C256.533 72.5234 257.777 74.4758 258.666 76.7107C259.555 78.9467 260 81.3337 260 83.8748C260 86.4625 259.555 88.8746 258.666 91.1101C257.777 93.3449 256.533 95.2985 254.937 96.9673C253.34 98.6378 251.425 99.9454 249.191 100.885C246.956 101.826 244.516 102.297 241.872 102.297C238.953 102.297 236.331 101.673 234.006 100.426C231.681 99.1812 229.878 97.544 228.602 95.5212V115.426ZM89.1789 101.482C89.0488 101.442 88.9198 101.4 88.7908 101.357C86.3912 100.579 84.2746 99.38 82.5097 97.7566C80.7454 96.2036 79.2634 94.2279 78.2042 91.8283C77.1451 89.4992 76.5802 86.7461 76.5802 83.5703C76.5802 80.5361 77.1451 77.8528 78.2042 75.4544C79.2634 73.1241 80.6737 71.1466 82.5097 69.5238C84.2746 67.9004 86.3912 66.7015 88.8619 65.8542C91.2621 65.0076 93.802 64.5831 96.5551 64.5831C99.0251 64.5831 101.425 64.8667 103.614 65.502C105.802 66.1372 107.425 67.0543 108.484 68.1129C108.977 68.6073 109.401 69.1709 109.753 69.7352C110.036 70.3722 110.177 71.0774 110.177 71.8529C110.177 72.6297 110.036 73.4059 109.753 74.0424C109.471 74.6776 109.119 75.3129 108.695 75.8055C108.272 76.3005 107.849 76.7948 107.425 77.1477C106.931 77.5704 106.578 77.8529 106.225 78.0642C105.377 77.2176 104.178 76.4408 102.695 75.6652C101.214 74.9595 99.378 74.606 97.3312 74.606C96.1317 74.606 94.9316 74.8174 93.873 75.1708C92.7434 75.5243 91.7553 76.0891 90.9791 76.8653C90.1324 77.6421 89.4971 78.5586 89.0028 79.6882C88.509 80.8179 88.2266 82.0884 88.2266 83.5703C88.2266 85.1227 88.509 86.4643 89.0028 87.5229C89.4971 88.6525 90.1324 89.569 90.9791 90.2754C91.7553 90.9805 92.7434 91.4755 93.873 91.8283C95.0021 92.18 96.2016 92.3227 97.4727 92.3227C98.5319 92.3227 99.5905 92.18 100.508 91.9686C101.425 91.7567 102.202 91.5459 102.907 91.2629C103.614 90.9805 104.178 90.6987 104.672 90.4169C105.167 90.2049 105.448 89.9935 105.59 89.8514L110.531 98.4623C110.036 98.8164 109.33 99.168 108.484 99.6636C107.637 100.156 106.648 100.579 105.448 101.002C104.288 101.412 102.932 101.757 101.441 102.033C101.234 103.319 100.653 104.375 99.6938 105.175C98.4221 106.253 96.7419 106.793 94.6045 106.793C92.67 106.793 91.1433 106.553 90.0238 106.134C88.9049 105.713 88.1908 105.354 87.8857 105.054L89.1789 101.482ZM52.583 88.2991C52.654 88.8645 52.9358 89.4281 53.3592 89.9225C53.712 90.4873 54.2774 90.9805 55.0536 91.4755C55.7588 91.968 56.6764 92.3227 57.8061 92.6051C58.9351 92.8863 60.2756 93.0278 61.8996 93.0278C63.0997 93.0278 64.2998 92.8863 65.3578 92.6749C66.417 92.4636 67.4045 92.2516 68.1819 92.0397C68.9569 91.8283 69.6632 91.5453 70.1576 91.334C70.6514 91.122 71.0054 90.91 71.0747 90.8402L75.0273 98.7453C74.6744 98.9561 74.0391 99.3095 73.1931 99.7335C72.2742 100.156 71.2162 100.579 69.8758 101.003C68.5336 101.427 67.0529 101.781 65.2879 102.063C63.523 102.415 61.5473 102.556 59.4295 102.556C56.8174 102.556 54.3473 102.132 52.0181 101.286C49.6896 100.439 47.7133 99.168 46.0194 97.5458C44.2545 95.9224 42.9129 93.9455 41.9253 91.617C40.9372 89.2872 40.4428 86.6052 40.4428 83.5703C40.4428 80.7474 40.9372 78.1353 41.9253 75.8055C42.9129 73.477 44.2545 71.4302 46.0194 69.8068C47.7843 68.1834 49.8305 66.843 52.1596 65.9253C54.4888 65.007 57.0299 64.5837 59.7824 64.5837C62.3235 64.5837 64.581 64.9371 66.6283 65.5718C68.6751 66.2787 70.3702 67.1946 71.781 68.3959C73.122 69.596 74.1812 70.9358 74.9574 72.4178C75.6625 73.9003 76.016 75.4544 76.016 77.0766C76.016 78.8416 75.7336 80.3933 75.0983 81.7344C74.463 83.1458 73.4038 84.3471 71.8515 85.2636C70.2287 86.2523 68.1109 87.0291 65.4288 87.5229C62.6758 88.0167 59.2176 88.2991 55.0536 88.2991H52.583ZM144.338 101.356C144.056 101.426 143.42 101.569 142.433 101.638C141.445 101.781 140.245 101.921 138.763 102.063C137.28 102.204 135.586 102.344 133.681 102.415C131.775 102.486 129.728 102.556 127.611 102.556C124.012 102.556 121.048 102.204 118.718 101.569C116.388 100.933 114.483 100.086 113.071 99.0277C111.66 97.9679 110.671 96.6992 110.106 95.2155C109.542 93.8046 109.26 92.3233 109.26 90.6993C109.26 86.3933 110.671 83.2885 113.423 81.3827C116.176 79.5467 120.623 78.6296 126.623 78.6296C128.105 78.6296 129.376 78.6296 130.434 78.6995C131.423 78.7699 132.269 78.8416 132.904 78.9114C132.904 77.2892 132.269 75.947 130.929 75.0299C129.587 74.1116 127.329 73.6184 124.223 73.6184C122.741 73.6184 121.471 73.6877 120.411 73.8292C119.283 74.0424 118.364 74.2537 117.588 74.4663C116.812 74.6777 116.176 74.9589 115.682 75.1714C115.188 75.3822 114.906 75.5941 114.694 75.7356C114.623 75.6658 114.412 75.4538 114.13 75.1714C113.848 74.889 113.565 74.5361 113.282 74.0424C113.001 73.6185 112.718 73.1241 112.506 72.5593C112.294 71.9944 112.154 71.3592 112.154 70.7239C112.154 66.6304 116.317 64.5837 124.717 64.5837C127.469 64.5837 130.01 64.795 132.411 65.2906C134.81 65.7838 136.927 66.6304 138.692 67.8299C140.456 69.0306 141.797 70.6534 142.856 72.6297C143.844 74.606 144.338 77.0767 144.338 80.0411V101.356ZM202.777 69.2635C200.213 69.2635 198.132 69.593 196.531 70.2516C194.929 70.9126 193.831 71.5228 193.238 72.0864C192.918 71.8523 192.632 71.5228 192.384 71.0989C192.133 70.6761 192.006 70.2056 192.006 69.688C192.006 69.1739 192.133 68.7333 192.384 68.3625C192.632 67.9929 192.941 67.6705 193.306 67.3923C193.764 67.0227 194.774 66.6077 196.331 66.1468C197.889 65.6847 199.998 65.453 202.657 65.453C208.112 65.453 212.352 66.6053 215.378 68.9112C218.402 71.2165 219.915 74.935 219.915 80.0632V101.167C218.59 101.402 216.681 101.648 214.191 101.909C211.702 102.166 208.879 102.297 205.725 102.297C202.068 102.297 199.133 101.965 196.916 101.306C194.7 100.645 192.973 99.783 191.739 98.7202C190.506 97.6592 189.682 96.4675 189.272 95.145C188.86 93.8243 188.655 92.5024 188.655 91.1799C188.655 89.4813 188.906 87.9349 189.408 86.5425C189.909 85.1513 190.764 83.9578 191.973 82.9685C193.181 81.9756 194.812 81.1976 196.864 80.6304C198.915 80.0644 201.491 79.7808 204.593 79.7808C205.596 79.7808 206.646 79.8166 207.739 79.8858C208.833 79.9575 209.871 80.0273 210.852 80.0978C211.832 80.1694 212.721 80.2512 213.52 80.3462C214.317 80.4417 214.945 80.511 215.401 80.5569V80.1336C215.401 77.9686 215.046 76.1811 214.337 74.7702C213.628 73.3569 212.691 72.2404 211.524 71.4171C210.357 70.5949 209.018 70.0289 207.51 69.722C206.001 69.4175 204.422 69.2635 202.777 69.2635ZM187.493 101.309H147.272V95.794C153.382 89.4795 159.424 83.0222 165.399 76.4247C171.373 69.8265 177.095 63.3925 182.568 57.1234H150.897C150.258 57.1234 149.723 56.9508 149.288 56.6033C148.856 56.2564 148.639 55.7137 148.639 54.9721C148.639 54.4622 148.719 54.024 148.879 53.6538C149.038 53.2824 149.164 53.0281 149.255 52.8896H183.457C184.961 52.8896 186.044 53.1594 186.705 53.701C187.367 54.2449 187.698 55.0336 187.698 56.0707C187.698 57.0613 187.322 58.0984 186.569 59.1814C185.816 60.2645 184.665 61.7016 183.115 63.4928C181.563 65.2834 179.877 67.2048 178.053 69.2539C176.228 71.3048 174.348 73.3916 172.409 75.5123C170.471 77.6319 168.522 79.7527 166.562 81.8753C164.6 83.996 162.731 85.9992 160.952 87.8841C159.174 89.7702 157.544 91.5017 156.061 93.081C154.579 94.6596 153.335 95.9898 152.334 97.0735H187.493V101.309ZM215.401 84.5794C214.988 84.4874 213.902 84.2975 212.142 84.0157C210.379 83.7333 207.785 83.5924 204.353 83.5924C202.661 83.5924 201.129 83.7094 199.757 83.9441C198.385 84.1805 197.207 84.5931 196.224 85.18C195.24 85.7687 194.485 86.5562 193.958 87.545C193.433 88.5331 193.169 89.7571 193.169 91.2157C193.169 93.7562 194.141 95.6268 196.085 96.8263C198.029 98.027 201.265 98.6265 205.795 98.6265C208.768 98.6265 210.986 98.4975 212.45 98.2378C213.914 97.9793 214.898 97.7793 215.401 97.6384V84.5794ZM255.143 83.8748C255.143 81.8986 254.835 80.0279 254.219 78.263C253.603 76.4987 252.714 74.9702 251.551 73.6746C250.388 72.3813 248.997 71.3586 247.379 70.6045C245.76 69.8534 243.925 69.4748 241.872 69.4748C239.866 69.4748 238.052 69.8402 236.434 70.5687C234.815 71.2995 233.435 72.2995 232.296 73.5695C231.155 74.8401 230.267 76.3578 229.628 78.1215C228.989 79.8864 228.671 81.8048 228.671 83.8748C228.671 85.8505 228.989 87.7211 229.628 89.486C230.267 91.2503 231.168 92.7806 232.33 94.0751C233.493 95.3683 234.883 96.4036 236.503 97.1786C238.121 97.956 239.911 98.3441 241.872 98.3441C243.925 98.3441 245.76 97.9799 247.379 97.2503C248.997 96.5207 250.388 95.4985 251.551 94.1801C252.714 92.863 253.603 91.3322 254.219 89.5923C254.835 87.8513 255.143 85.9467 255.143 83.8748ZM132.975 86.6046C132.551 86.5347 131.917 86.3932 131.14 86.3228C130.293 86.2529 129.022 86.2529 127.399 86.2529C125.987 86.2529 124.858 86.3932 123.94 86.6046C123.024 86.8166 122.388 87.1694 121.894 87.5229C121.4 87.9462 121.048 88.44 120.835 88.9344C120.623 89.4275 120.552 89.9935 120.552 90.5572C120.552 90.9799 120.623 91.4044 120.764 91.8982C120.906 92.3926 121.187 92.8165 121.681 93.1693C122.176 93.521 122.882 93.8745 123.8 94.0858C124.717 94.3688 125.987 94.5097 127.54 94.5097C128.74 94.5097 129.87 94.4399 130.929 94.3688C131.987 94.2984 132.623 94.2273 132.975 94.1575V86.6046ZM19.3395 92.1806C21.6687 92.1806 23.6444 91.3346 25.1968 89.7105C26.6793 88.0871 27.4555 86.041 27.4555 83.4999C27.4555 80.9587 26.6793 78.9114 25.1968 77.3591C23.6444 75.8061 21.6687 75.0299 19.3395 75.0299C17.0092 75.0299 15.0341 75.8061 13.551 77.2892C11.9986 78.7699 11.223 80.8871 11.223 83.4999C11.223 84.7006 11.4344 85.8296 11.8577 86.8882C12.2112 87.9462 12.7748 88.8639 13.551 89.6395C14.2573 90.4163 15.1052 91.0515 16.0921 91.4755C17.0803 91.968 18.1388 92.1806 19.3395 92.1806ZM52.0181 80.9594C55.1933 80.9594 57.5947 80.8172 59.3585 80.6047C61.1234 80.3933 62.3934 80.0411 63.2406 79.6876C64.0872 79.3354 64.581 78.9114 64.7936 78.4189C65.0043 77.9239 65.0754 77.5 65.0754 77.0068C65.0754 76.018 64.6521 75.1708 63.735 74.3946C62.8167 73.6877 61.4763 73.3366 59.7113 73.3366C58.4408 73.3366 57.3111 73.5474 56.394 73.9713C55.4769 74.4663 54.7002 75.0299 54.0655 75.7351C53.4296 76.4408 52.9358 77.2181 52.583 78.1352C52.2307 79.0523 52.0898 80.0411 52.0181 80.9594Z" fill="#636466"/>
<defs>
<linearGradient id="paint0_linear" x1="240.944" y1="-4.26567" x2="202.133" y2="26.4101" gradientUnits="userSpaceOnUse">
<stop stop-color="#00A7CF"/>
<stop offset="1" stop-color="#CCDC29"/>
</linearGradient>
</defs>
</svg>
