<svg width="22" height="18" viewBox="0 0 22 18" fill="none" xmlns="http://www.w3.org/2000/svg">
<path d="M7.42997 5.28571C7.42997 4.10268 6.47015 3.14286 5.28711 3.14286C4.10407 3.14286 3.14425 4.10268 3.14425 5.28571C3.14425 6.46875 4.10407 7.42857 5.28711 7.42857C6.47015 7.42857 7.42997 6.46875 7.42997 5.28571ZM18.8585 9.57143L14.2157 4.92857L8.5014 10.6429L6.71568 8.85714L3.14425 12.4286V14.5714H18.8585V9.57143ZM19.93 1.71429C20.1197 1.71429 20.2871 1.8817 20.2871 2.07143V15.6429C20.2871 15.8326 20.1197 16 19.93 16H2.07282C1.88309 16 1.71568 15.8326 1.71568 15.6429V2.07143C1.71568 1.8817 1.88309 1.71429 2.07282 1.71429H19.93ZM21.7157 2.07143C21.7157 1.08929 20.9121 0.285713 19.93 0.285713H2.07282C1.09068 0.285713 0.287109 1.08929 0.287109 2.07143V15.6429C0.287109 16.625 1.09068 17.4286 2.07282 17.4286H19.93C20.9121 17.4286 21.7157 16.625 21.7157 15.6429V2.07143Z" fill="currentColor"/>
</svg>
