<svg width="20" height="21" viewBox="0 0 20 21" fill="none" xmlns="http://www.w3.org/2000/svg">
<path d="M19.6875 0.97991C19.5759 0.901785 19.4308 0.857141 19.2857 0.857141C19.1629 0.857141 19.0402 0.890624 18.9286 0.957588L0.357143 11.6719C0.122768 11.8058 -0.0111607 12.0625 0 12.3304C0.0223214 12.6094 0.189732 12.8438 0.446429 12.9442L4.85491 14.7522L16.7857 4.42857L7.14286 16.2478V20.1429C7.14286 20.4442 7.33259 20.7121 7.61161 20.8125C7.68973 20.846 7.77902 20.8571 7.85714 20.8571C8.0692 20.8571 8.27009 20.7679 8.40402 20.6004L11.1049 17.308L16.1607 19.3728C16.25 19.4062 16.3393 19.4286 16.4286 19.4286C16.5513 19.4286 16.6741 19.3951 16.7746 19.3393C16.9643 19.2277 17.0982 19.0491 17.1317 18.8371L19.9888 1.6942C20.0335 1.41518 19.9219 1.14732 19.6875 0.97991Z" fill="currentColor"/>
</svg>
