<svg width="20" height="16" viewBox="0 0 20 16" fill="none" xmlns="http://www.w3.org/2000/svg">
<path d="M20 13.8571V15.2857C20 15.4792 19.9293 15.6466 19.7879 15.7879C19.6466 15.9293 19.4792 16 19.2857 16H0.714286C0.520833 16 0.353423 15.9293 0.212054 15.7879C0.0706845 15.6466 0 15.4792 0 15.2857V13.8571C0 13.6637 0.0706845 13.4963 0.212054 13.3549C0.353423 13.2135 0.520833 13.1429 0.714286 13.1429H19.2857C19.4792 13.1429 19.6466 13.2135 19.7879 13.3549C19.9293 13.4963 20 13.6637 20 13.8571ZM20 9.57143V11C20 11.1935 19.9293 11.3609 19.7879 11.5022C19.6466 11.6436 19.4792 11.7143 19.2857 11.7143H5C4.80655 11.7143 4.63914 11.6436 4.49777 11.5022C4.3564 11.3609 4.28571 11.1935 4.28571 11V9.57143C4.28571 9.37798 4.3564 9.21057 4.49777 9.0692C4.63914 8.92783 4.80655 8.85714 5 8.85714H19.2857C19.4792 8.85714 19.6466 8.92783 19.7879 9.0692C19.9293 9.21057 20 9.37798 20 9.57143ZM20 5.28571V6.71429C20 6.90774 19.9293 7.07515 19.7879 7.21652C19.6466 7.35789 19.4792 7.42857 19.2857 7.42857H2.14286C1.9494 7.42857 1.78199 7.35789 1.64062 7.21652C1.49926 7.07515 1.42857 6.90774 1.42857 6.71429V5.28571C1.42857 5.09226 1.49926 4.92485 1.64062 4.78348C1.78199 4.64211 1.9494 4.57143 2.14286 4.57143H19.2857C19.4792 4.57143 19.6466 4.64211 19.7879 4.78348C19.9293 4.92485 20 5.09226 20 5.28571ZM20 0.999999V2.42857C20 2.62202 19.9293 2.78943 19.7879 2.9308C19.6466 3.07217 19.4792 3.14286 19.2857 3.14286H6.42857C6.23512 3.14286 6.06771 3.07217 5.92634 2.9308C5.78497 2.78943 5.71429 2.62202 5.71429 2.42857V0.999999C5.71429 0.806547 5.78497 0.639136 5.92634 0.497768C6.06771 0.356398 6.23512 0.285713 6.42857 0.285713H19.2857C19.4792 0.285713 19.6466 0.356398 19.7879 0.497768C19.9293 0.639136 20 0.806547 20 0.999999Z" fill="currentColor"/>
</svg>
