<svg width="24" height="24" viewBox="0 0 24 24" fill="none" xmlns="http://www.w3.org/2000/svg">
<path d="M16.9436 23.9987C15.8911 23.9987 14.8492 23.7648 13.9083 23.3223C13.2386 23.4313 12.6632 23.4831 12.1183 23.4831C5.77277 23.4831 0.609968 18.3828 0.609968 12.1143C0.609968 11.5043 0.669769 10.8691 0.794686 10.1821C0.273754 9.19471 0 8.09171 0 6.97012C0 3.12692 3.16546 0 7.05783 0C8.26846 0 9.45119 0.305649 10.501 0.88771C10.9794 0.825251 11.503 0.797344 12.1183 0.797344C15.1841 0.797344 18.0625 1.97077 20.2233 4.10233C22.3868 6.23789 23.5775 9.08308 23.5775 12.1143C23.5775 12.9183 23.523 13.5987 23.406 14.2299C23.8007 15.1083 24.0001 16.0492 24.0001 17.0286C24.0001 20.8718 20.8346 23.9987 16.9436 23.9987ZM14.2047 21.3648L14.4917 21.5177C15.2372 21.915 16.0851 22.1236 16.9436 22.1236C19.8007 22.1236 22.125 19.8379 22.125 17.0286C22.125 16.2326 21.9442 15.4738 21.5894 14.7735L21.4366 14.4731L21.511 14.1436C21.6413 13.5602 21.7024 12.9156 21.7024 12.1143C21.7024 6.90766 17.4034 2.6711 12.1183 2.6711C11.4578 2.6711 10.9342 2.70831 10.4691 2.78672L10.1183 2.84652L9.81664 2.65914C8.99138 2.14618 8.03723 1.87509 7.05783 1.87509C4.20067 1.87509 1.87509 4.16081 1.87509 6.97012C1.87509 7.87643 2.12094 8.76547 2.58472 9.54288L2.7721 9.8565L2.69768 10.2126C2.55416 10.909 2.48506 11.5309 2.48506 12.1143C2.48506 17.3489 6.80666 21.608 12.1183 21.608C12.6313 21.608 13.1921 21.5496 13.8831 21.4233L14.2047 21.3648ZM18.0466 14.5715C18.0466 13.8964 17.9137 13.317 17.6479 12.8479C17.3821 12.3814 17.0087 11.9894 16.5396 11.6851C16.0771 11.3861 15.511 11.1296 14.8559 10.921C14.2087 10.715 13.4778 10.5263 12.6818 10.3562C12.0519 10.2113 11.5934 10.0984 11.321 10.0239C11.0538 9.95085 10.7881 9.8472 10.5289 9.7183C10.2791 9.59471 10.0824 9.44587 9.94155 9.2771C9.80999 9.1163 9.70235 8.93025 9.70235 8.70833C9.70235 8.34421 9.94554 8.03723 10.3562 7.77012C10.7814 7.49238 11.3542 7.37809 12.0598 7.37809C12.8186 7.37809 13.3715 7.48042 13.7024 7.72892C14.0426 7.9854 14.3389 8.35085 14.5848 8.81464C14.7961 9.17743 14.9874 9.42992 15.1721 9.59205C15.3701 9.76614 15.6559 9.84321 16.02 9.84321C16.42 9.84321 16.7615 9.71298 17.0286 9.43524C17.2971 9.15882 17.4844 8.83989 17.4844 8.49039C17.4844 8.12892 17.3289 7.75417 17.1256 7.37676C16.9223 7.00334 16.602 6.64453 16.1688 6.30699C15.7396 5.97344 15.1921 5.70367 14.5449 5.503C13.9004 5.30234 13.1269 5.20267 12.2485 5.20267C11.1509 5.20267 10.1794 5.35284 9.36348 5.6545C8.5369 5.95749 7.89371 6.40267 7.45517 6.97144C7.01131 7.54553 6.75085 8.21132 6.75085 8.95019C6.75085 9.72627 6.99935 10.3841 7.42195 10.909C7.83789 11.4259 8.40534 11.8392 9.11232 12.1382C9.80202 12.4293 10.6685 12.6857 11.6891 12.9037C12.4399 13.0618 13.0472 13.2107 13.4937 13.3489C13.9216 13.4804 14.2764 13.6758 14.5449 13.9243C14.7987 14.1622 14.9382 14.4651 14.9382 14.8519C14.9382 15.3396 14.6844 15.7396 14.1954 16.0718C13.6944 16.412 13.0273 16.5462 12.2153 16.5462C11.6226 16.5462 11.1429 16.4997 10.7867 16.3309C10.4306 16.1648 10.1528 15.9509 9.96149 15.6984C9.75949 15.4326 9.56946 15.099 9.39537 14.7017C9.23989 14.3376 9.04587 14.0545 8.81863 13.8645C8.58208 13.6651 8.28972 13.5469 7.95218 13.5469C7.54155 13.5469 7.19603 13.6931 6.92493 13.9442C6.65384 14.198 6.51563 14.509 6.51563 14.8665C6.51563 15.4406 6.72826 16.0346 7.14686 16.6326C7.55882 17.2253 8.105 17.7064 8.76547 18.0612C9.68906 18.5502 10.8744 18.7961 12.2871 18.7961C13.4632 18.7961 14.497 18.6153 15.3595 18.2592C16.2313 17.9004 16.9024 17.3927 17.3582 16.7522C17.8153 16.1103 18.0452 15.3768 18.0466 14.5715Z" fill="currentColor"/>
</svg>
