<svg width="24" height="24" viewBox="0 0 24 24" fill="none" xmlns="http://www.w3.org/2000/svg">
<path fill-rule="evenodd" clip-rule="evenodd" d="M20.3723 3.62076C22.2908 5.53628 23.5379 7.9418 23.9896 10.5856C24.0556 10.9558 23.8022 11.3098 23.4314 11.365C23.4271 11.3656 23.4228 11.3661 23.4186 11.3667C23.3834 11.3715 23.3516 11.3757 23.3155 11.3757C22.9851 11.3757 22.6966 11.1429 22.64 10.809C22.2396 8.44794 21.1233 6.29549 19.4097 4.58323C17.6947 2.87635 15.5389 1.75773 13.1742 1.35793C12.7994 1.29197 12.5513 0.941977 12.612 0.567756C12.678 0.197573 13.0286 -0.0554971 13.398 0.0104627C16.0459 0.461413 18.4551 1.70657 20.3723 3.62076ZM18.978 14.868C18.4859 14.3565 17.8927 14.0832 17.2631 14.0832C16.6389 14.0832 16.0403 14.3511 15.5279 14.8626L13.9249 16.4591C13.8351 16.4101 13.7446 16.3636 13.6557 16.318C13.6152 16.2971 13.5749 16.2765 13.5353 16.2558C13.3519 16.1643 13.1807 16.0781 13.0324 15.988C11.5318 15.0349 10.1661 13.7938 8.8583 12.1892C8.22328 11.3883 7.79725 10.7152 7.48851 10.0314C7.85174 9.69932 8.19228 9.35491 8.52367 9.01976L8.52367 9.01975L8.6655 8.87641C8.72971 8.8123 8.79393 8.7468 8.85827 8.68117L8.85828 8.68116C8.93578 8.60211 9.01346 8.52288 9.09154 8.44565C10.1566 7.38222 10.1566 6.00514 9.09154 4.94036L7.70692 3.5579C7.54918 3.40175 7.38739 3.23887 7.23504 3.07733C6.93034 2.76234 6.61082 2.43927 6.2805 2.13505C5.7884 1.6491 5.20058 1.39064 4.58175 1.39064C3.96292 1.39064 3.36431 1.6491 2.85738 2.13505C2.85199 2.14043 2.85198 2.14043 2.8466 2.14447L2.84659 2.14447L1.12222 3.88231C0.472379 4.53114 0.102968 5.32131 0.0207263 6.23802C-0.100613 7.71606 0.336209 9.09448 0.670567 9.99504C1.49163 12.2094 2.71986 14.2595 4.55074 16.4591C6.7726 19.1069 9.44612 21.1988 12.4998 22.6728C13.6674 23.2247 15.2246 23.8776 16.9638 23.9893C17.0703 23.9947 17.1822 24.0001 17.2833 24.0001C18.4549 24.0001 19.4391 23.5801 20.2103 22.7441C20.213 22.7387 20.217 22.7347 20.2209 22.7308C20.2248 22.727 20.2285 22.7233 20.2305 22.7186C20.4783 22.4194 20.7617 22.1463 21.0595 21.8592L21.0595 21.8592L21.119 21.8018C21.3374 21.5945 21.5599 21.3765 21.7783 21.1476C22.2798 20.6267 22.5441 20.0182 22.5441 19.3963C22.5441 18.7677 22.2758 18.1646 21.7634 17.6585L18.978 14.868ZM20.7941 20.2013C20.627 20.3806 20.457 20.5456 20.2769 20.7204L20.1752 20.8192C19.8449 21.1328 19.5106 21.4626 19.1964 21.8315C18.6841 22.3793 18.0801 22.6378 17.2887 22.6378H17.2886C17.2118 22.6378 17.1323 22.6378 17.0555 22.6324C15.5482 22.5355 14.1487 21.9486 13.0984 21.4465C10.2281 20.06 7.70692 18.0893 5.61179 15.5922C3.88202 13.5111 2.72525 11.5861 1.95946 9.51986C1.48759 8.25854 1.31502 7.27588 1.39052 6.34975C1.44175 5.75611 1.6696 5.26477 2.09159 4.84479L3.82 3.11771C4.06943 2.88484 4.33233 2.7583 4.59119 2.7583C4.91071 2.7583 5.16957 2.9508 5.33271 3.11233L5.33789 3.11782C5.34103 3.12125 5.34399 3.12448 5.34754 3.12714C5.65763 3.41655 5.95154 3.71539 6.26028 4.03442C6.32841 4.10419 6.39754 4.17421 6.46714 4.24469L6.46735 4.2449L6.46738 4.24493C6.55884 4.33757 6.65111 4.43101 6.74294 4.52575L8.12756 5.90822C8.6655 6.44532 8.6655 6.94204 8.12756 7.47779L8.01669 7.58986C7.90812 7.69977 7.80086 7.80835 7.69209 7.91394C7.2647 8.35008 6.85889 8.75526 6.41802 9.14967C6.41413 9.15355 6.41042 9.15656 6.40701 9.15932C6.40096 9.16423 6.39585 9.16836 6.39241 9.17525C5.95693 9.61005 6.03782 10.0368 6.1295 10.3248C6.13355 10.3396 6.13894 10.3558 6.14433 10.3706C6.50431 11.2415 7.01124 12.0627 7.78242 13.04L7.78781 13.044C9.18726 14.767 10.6636 16.1091 12.2922 17.1375C12.4946 17.2648 12.702 17.369 12.9009 17.469L12.9164 17.4768C13.0984 17.567 13.271 17.6531 13.418 17.7446C13.4266 17.7493 13.4353 17.7546 13.4439 17.76L13.444 17.76C13.4555 17.7671 13.4671 17.7743 13.4786 17.7796C13.6512 17.8658 13.8143 17.9062 13.9815 17.9062C14.4022 17.9062 14.6664 17.6437 14.7527 17.5575L16.4865 15.8251C16.6604 15.6528 16.9341 15.4455 17.2536 15.4455C17.5678 15.4455 17.8266 15.6434 17.983 15.8157C17.9884 15.8197 17.9884 15.8197 17.9938 15.8251L20.7887 18.6156C21.3118 19.1325 21.3118 19.6642 20.7941 20.2013ZM12.9753 5.70793C14.3033 5.93139 15.5113 6.55868 16.4752 7.52116C17.4392 8.48363 18.0634 9.68841 18.2913 11.0157C18.3466 11.3509 18.6364 11.5837 18.9654 11.5837C19.0029 11.5837 19.0349 11.5794 19.0703 11.5746L19.0827 11.573C19.4575 11.5124 19.7069 11.1584 19.6462 10.7828C19.3712 9.17688 18.6108 7.71365 17.4487 6.55464C16.2878 5.39429 14.8223 4.63373 13.2139 4.36047C12.8377 4.29989 12.4872 4.54892 12.4225 4.91776C12.3564 5.28794 12.6005 5.64736 12.9753 5.70793Z" fill="currentColor"/>
</svg>
