<svg width="16" height="16" viewBox="0 0 16 16" fill="none" xmlns="http://www.w3.org/2000/svg">
<path d="M15.7806 5.46248L14.5433 4.22516C14.2496 3.93146 13.7746 3.93146 13.4841 4.22516L6.00073 11.7084L2.51996 8.22458C2.22625 7.93087 1.75132 7.93087 1.46073 8.22458L0.220282 9.46502C-0.0734273 9.75873 -0.0734273 10.2337 0.220282 10.5274L5.46955 15.7797C5.76326 16.0734 6.2382 16.0734 6.52878 15.7797L15.7775 6.52483C16.0712 6.22799 16.0712 5.75306 15.7806 5.46248ZM5.64765 8.7745C5.84138 8.97134 6.16008 8.97134 6.35381 8.7745L12.8529 2.2692C13.0466 2.07235 13.0466 1.75677 12.8529 1.56305L11.4406 0.147635C11.2469 -0.0492115 10.9282 -0.0492115 10.7344 0.147635L6.00073 4.88132L4.26972 3.1472C4.076 2.95035 3.75729 2.95035 3.56357 3.1472L2.14814 4.56261C1.95442 4.75946 1.95442 5.07504 2.14814 5.26876L5.64765 8.7745Z" fill="currentColor"/>
</svg>
