<svg width="18" height="18" viewBox="0 0 18 18" fill="none" xmlns="http://www.w3.org/2000/svg">
<path d="M0.961496 1.34598C0.686198 1.3311 0.518787 1.31622 0.459263 1.30134L0.425781 0.319196C0.522507 0.311755 0.671317 0.308035 0.87221 0.308035C1.31864 0.308035 1.73531 0.322916 2.12221 0.352678C3.10435 0.404761 3.72191 0.430803 3.97489 0.430803C4.61477 0.430803 5.23977 0.419642 5.84989 0.397321C6.71298 0.367559 7.25614 0.348958 7.47935 0.341518C7.89602 0.341518 8.21596 0.334077 8.43917 0.319196L8.42801 0.475446L8.45033 1.18973V1.29018C8.00391 1.35714 7.5426 1.39062 7.06641 1.39062C6.61998 1.39062 6.32608 1.48363 6.18471 1.66964C6.08798 1.77381 6.03962 2.26488 6.03962 3.14286C6.03962 3.23958 6.03962 3.36235 6.03962 3.51116C6.04706 3.65253 6.05078 3.74553 6.05078 3.79018L6.06194 6.34598L6.21819 9.47098C6.26283 10.3936 6.45257 11.1451 6.78739 11.7254C7.04781 12.1644 7.40495 12.5067 7.85882 12.7522C8.51358 13.1019 9.17206 13.2768 9.83426 13.2768C10.6081 13.2768 11.3186 13.1726 11.966 12.9643C12.3826 12.8304 12.7509 12.6406 13.0709 12.3951C13.428 12.1272 13.6698 11.8891 13.7963 11.6808C14.0642 11.2641 14.2613 10.84 14.3878 10.4085C14.5441 9.86533 14.6222 9.01339 14.6222 7.85268C14.6222 7.26488 14.6073 6.78869 14.5776 6.42411C14.5552 6.05952 14.5143 5.60565 14.4548 5.0625C14.4027 4.5119 14.3544 3.91667 14.3097 3.27679L14.2651 2.6183C14.2279 2.11979 14.1386 1.79241 13.9972 1.63616C13.7442 1.37574 13.4578 1.24926 13.1378 1.2567L12.0218 1.27902L11.8655 1.24554L11.8878 0.285713H12.8253L15.1133 0.397321C15.6788 0.419642 16.4079 0.38244 17.3008 0.285713L17.5017 0.308035C17.5463 0.590774 17.5686 0.780505 17.5686 0.877231C17.5686 0.929314 17.5538 1.04464 17.524 1.22321C17.1892 1.3125 16.8767 1.36086 16.5865 1.3683C16.0433 1.45015 15.7494 1.51339 15.7048 1.55804C15.5932 1.66964 15.5374 1.82217 15.5374 2.01562C15.5374 2.06771 15.5411 2.16815 15.5486 2.31696C15.5634 2.46577 15.5709 2.5811 15.5709 2.66295C15.6304 2.80432 15.7122 4.27753 15.8164 7.08259C15.861 8.53348 15.8052 9.66443 15.649 10.4754C15.5374 11.0409 15.3849 11.4948 15.1914 11.8371C14.9087 12.3207 14.492 12.7783 13.9414 13.2098C13.3834 13.6339 12.7063 13.965 11.9102 14.2031C11.0991 14.4487 10.1505 14.5714 9.06417 14.5714C7.82161 14.5714 6.76507 14.4003 5.89453 14.058C5.00911 13.7083 4.34319 13.2545 3.89676 12.6964C3.44289 12.131 3.13411 11.4055 2.97042 10.5201C2.85138 9.92485 2.79185 9.04315 2.79185 7.875V4.15848C2.79185 2.75967 2.72861 1.96726 2.60212 1.78125C2.41611 1.51339 1.86923 1.3683 0.961496 1.34598ZM17.5686 17.0714V16.3571C17.5686 16.253 17.5352 16.1674 17.4682 16.1004C17.4012 16.0335 17.3157 16 17.2115 16H0.782924C0.678757 16 0.593192 16.0335 0.526228 16.1004C0.459263 16.1674 0.425781 16.253 0.425781 16.3571V17.0714C0.425781 17.1756 0.459263 17.2612 0.526228 17.3281C0.593192 17.3951 0.678757 17.4286 0.782924 17.4286H17.2115C17.3157 17.4286 17.4012 17.3951 17.4682 17.3281C17.5352 17.2612 17.5686 17.1756 17.5686 17.0714Z" fill="currentColor"/>
</svg>
