<svg width="24" height="24" viewBox="0 0 24 24" fill="none" xmlns="http://www.w3.org/2000/svg">
<path fill-rule="evenodd" clip-rule="evenodd" d="M11.9947 0C15.201 0 18.2109 1.24845 20.4788 3.51645C22.7468 5.78446 24 8.79374 24 12.0007C24 15.2076 22.7521 18.2156 20.4841 20.4836C18.17 22.7984 15.0942 24.0001 11.9895 24.0001C10.0562 24.0001 8.10719 23.5332 6.32682 22.5748C4.72831 23.727 3.16538 23.9753 2.10454 23.9753C1.7092 23.9753 1.3837 23.9402 1.15572 23.9038C0.668125 23.8284 0.292547 23.4474 0.216114 22.961C0.140999 22.4733 0.388748 22.0012 0.830216 21.7828C1.74873 21.3315 2.36811 20.429 2.75423 19.6526C-1.17945 14.9176 -0.875037 7.90032 3.51065 3.51645C5.77861 1.24845 8.78718 0 11.9947 0ZM6.81046 20.8282C10.8272 23.1886 15.9324 22.5331 19.2295 19.2352C23.2212 15.244 23.2212 8.75602 19.2256 4.7649C15.2379 0.773777 8.74501 0.773777 4.75335 4.7649C0.933006 8.58566 0.747194 14.7408 4.32374 18.7813C4.41731 18.8892 4.47002 19.0206 4.48583 19.1519C4.51878 19.2898 4.50955 19.4354 4.45025 19.5772C4.0839 20.4134 3.45926 21.4876 2.46694 22.2106H2.47221C3.33275 22.2106 4.63211 21.996 5.9552 20.97C5.96969 20.9557 5.98946 20.9414 6.00923 20.931C6.22008 20.7203 6.5469 20.6722 6.81046 20.8282ZM12.8345 12.0023C12.8345 11.5367 12.4576 11.1596 11.9924 11.1596C11.5272 11.1596 11.149 11.5367 11.149 12.0023C11.149 12.4665 11.5272 12.8437 11.9924 12.8437C12.4576 12.8437 12.8345 12.4665 12.8345 12.0023ZM16.3388 11.1596C16.804 11.1596 17.1822 11.5367 17.1822 12.0023C17.1822 12.4665 16.804 12.8437 16.3388 12.8437C15.8736 12.8437 15.4967 12.4665 15.4967 12.0023C15.4967 11.5367 15.8736 11.1596 16.3388 11.1596ZM8.4868 12.0023C8.4868 11.5367 8.10859 11.1596 7.6434 11.1596C7.17821 11.1596 6.80131 11.5367 6.80131 12.0023C6.80131 12.4665 7.17821 12.8437 7.6434 12.8437C8.10859 12.8437 8.4868 12.4665 8.4868 12.0023Z" fill="currentColor"/>
</svg>
